<mxfile host="app.diagrams.net" modified="2021-12-02T09:59:55.413Z" agent="5.0 (Windows)" etag="w5NfcBd_K-lBWjJlxZch" version="15.8.8" type="github">
  <diagram id="0UoRlzi65-XZR-ADYtH_" name="Page-1">
    <mxGraphModel dx="3567" dy="2506" grid="1" gridSize="10" guides="1" tooltips="1" connect="1" arrows="1" fold="1" page="1" pageScale="1" pageWidth="850" pageHeight="1100" math="0" shadow="0">
      <root>
        <mxCell id="0" />
        <mxCell id="1" parent="0" />
        <mxCell id="B5mQjCqMpTKeqFQhilP3-2" value="&lt;h1 style=&quot;font-size: 30px;&quot;&gt;&lt;font style=&quot;font-size: 30px;&quot;&gt;&lt;span class=&quot;markedContent&quot; id=&quot;page3R_mcid2&quot; style=&quot;font-size: 30px;&quot;&gt;&lt;span style=&quot;left: 118.04px; top: 198.054px; font-size: 30px; font-family: sans-serif; transform: scaleX(0.930393);&quot; dir=&quot;ltr&quot;&gt;Sahlgrenska sjukhus&lt;/span&gt;&lt;/span&gt;&lt;/font&gt;&lt;/h1&gt;" style="text;html=1;strokeColor=none;fillColor=none;align=center;verticalAlign=middle;whiteSpace=wrap;rounded=0;strokeWidth=8;fontSize=30;fontStyle=0" parent="1" vertex="1">
          <mxGeometry x="50" y="-390" width="370" height="40" as="geometry" />
        </mxCell>
        <mxCell id="B5mQjCqMpTKeqFQhilP3-4" value="Person" style="swimlane;fontStyle=2;childLayout=stackLayout;horizontal=1;startSize=30;horizontalStack=0;resizeParent=1;resizeParentMax=0;resizeLast=0;collapsible=1;marginBottom=0;fontSize=12;strokeWidth=1;" parent="1" vertex="1">
          <mxGeometry x="610" y="130" width="160" height="120" as="geometry" />
        </mxCell>
        <mxCell id="B5mQjCqMpTKeqFQhilP3-5" value="String name" style="text;strokeColor=none;fillColor=none;align=left;verticalAlign=middle;spacingLeft=4;spacingRight=4;overflow=hidden;points=[[0,0.5],[1,0.5]];portConstraint=eastwest;rotatable=0;fontSize=12;" parent="B5mQjCqMpTKeqFQhilP3-4" vertex="1">
          <mxGeometry y="30" width="160" height="30" as="geometry" />
        </mxCell>
        <mxCell id="B5mQjCqMpTKeqFQhilP3-6" value="String personNumber" style="text;strokeColor=none;fillColor=none;align=left;verticalAlign=middle;spacingLeft=4;spacingRight=4;overflow=hidden;points=[[0,0.5],[1,0.5]];portConstraint=eastwest;rotatable=0;fontSize=12;" parent="B5mQjCqMpTKeqFQhilP3-4" vertex="1">
          <mxGeometry y="60" width="160" height="30" as="geometry" />
        </mxCell>
        <mxCell id="B5mQjCqMpTKeqFQhilP3-7" value="String phoneNumber" style="text;strokeColor=none;fillColor=none;align=left;verticalAlign=middle;spacingLeft=4;spacingRight=4;overflow=hidden;points=[[0,0.5],[1,0.5]];portConstraint=eastwest;rotatable=0;fontSize=12;" parent="B5mQjCqMpTKeqFQhilP3-4" vertex="1">
          <mxGeometry y="90" width="160" height="30" as="geometry" />
        </mxCell>
        <mxCell id="B5mQjCqMpTKeqFQhilP3-100" value="1" style="edgeStyle=orthogonalEdgeStyle;rounded=0;orthogonalLoop=1;jettySize=auto;html=1;fontSize=12;startArrow=diamond;startFill=1;endArrow=none;endFill=0;" parent="1" source="B5mQjCqMpTKeqFQhilP3-8" target="nRXnl9KmNHgFB3vZUYHG-1" edge="1">
          <mxGeometry x="-0.9556" y="10" relative="1" as="geometry">
            <mxPoint as="offset" />
            <Array as="points">
              <mxPoint x="-40" y="10" />
            </Array>
          </mxGeometry>
        </mxCell>
        <mxCell id="B5mQjCqMpTKeqFQhilP3-144" value="0..*" style="edgeLabel;html=1;align=center;verticalAlign=middle;resizable=0;points=[];fontSize=12;" parent="B5mQjCqMpTKeqFQhilP3-100" vertex="1" connectable="0">
          <mxGeometry x="0.8821" relative="1" as="geometry">
            <mxPoint x="5" y="10" as="offset" />
          </mxGeometry>
        </mxCell>
        <mxCell id="B5mQjCqMpTKeqFQhilP3-8" value="Room" style="swimlane;fontStyle=0;childLayout=stackLayout;horizontal=1;startSize=30;horizontalStack=0;resizeParent=1;resizeParentMax=0;resizeLast=0;collapsible=1;marginBottom=0;fontSize=12;strokeWidth=1;" parent="1" vertex="1">
          <mxGeometry x="-120" y="200" width="160" height="90" as="geometry" />
        </mxCell>
        <mxCell id="B5mQjCqMpTKeqFQhilP3-9" value="String name" style="text;strokeColor=none;fillColor=none;align=left;verticalAlign=middle;spacingLeft=4;spacingRight=4;overflow=hidden;points=[[0,0.5],[1,0.5]];portConstraint=eastwest;rotatable=0;fontSize=12;" parent="B5mQjCqMpTKeqFQhilP3-8" vertex="1">
          <mxGeometry y="30" width="160" height="30" as="geometry" />
        </mxCell>
        <mxCell id="B5mQjCqMpTKeqFQhilP3-10" value="int size" style="text;strokeColor=none;fillColor=none;align=left;verticalAlign=middle;spacingLeft=4;spacingRight=4;overflow=hidden;points=[[0,0.5],[1,0.5]];portConstraint=eastwest;rotatable=0;fontSize=12;" parent="B5mQjCqMpTKeqFQhilP3-8" vertex="1">
          <mxGeometry y="60" width="160" height="30" as="geometry" />
        </mxCell>
        <mxCell id="LeWQNQjI-AW6BPyhMRMa-42" style="edgeStyle=orthogonalEdgeStyle;rounded=0;orthogonalLoop=1;jettySize=auto;html=1;entryX=0;entryY=0.25;entryDx=0;entryDy=0;" parent="1" source="B5mQjCqMpTKeqFQhilP3-12" target="B5mQjCqMpTKeqFQhilP3-16" edge="1">
          <mxGeometry relative="1" as="geometry">
            <Array as="points">
              <mxPoint x="-140" y="400" />
              <mxPoint x="-140" y="400" />
            </Array>
          </mxGeometry>
        </mxCell>
        <mxCell id="B5mQjCqMpTKeqFQhilP3-12" value="Notification" style="swimlane;fontStyle=0;childLayout=stackLayout;horizontal=1;startSize=30;horizontalStack=0;resizeParent=1;resizeParentMax=0;resizeLast=0;collapsible=1;marginBottom=0;fontSize=12;strokeWidth=1;" parent="1" vertex="1">
          <mxGeometry x="-319" y="430" width="160" height="120" as="geometry" />
        </mxCell>
        <mxCell id="B5mQjCqMpTKeqFQhilP3-13" value="String title" style="text;strokeColor=none;fillColor=none;align=left;verticalAlign=middle;spacingLeft=4;spacingRight=4;overflow=hidden;points=[[0,0.5],[1,0.5]];portConstraint=eastwest;rotatable=0;fontSize=12;" parent="B5mQjCqMpTKeqFQhilP3-12" vertex="1">
          <mxGeometry y="30" width="160" height="30" as="geometry" />
        </mxCell>
        <mxCell id="B5mQjCqMpTKeqFQhilP3-14" value="String content" style="text;strokeColor=none;fillColor=none;align=left;verticalAlign=middle;spacingLeft=4;spacingRight=4;overflow=hidden;points=[[0,0.5],[1,0.5]];portConstraint=eastwest;rotatable=0;fontSize=12;" parent="B5mQjCqMpTKeqFQhilP3-12" vertex="1">
          <mxGeometry y="60" width="160" height="30" as="geometry" />
        </mxCell>
        <mxCell id="B5mQjCqMpTKeqFQhilP3-15" value="LocalDateTime date" style="text;strokeColor=none;fillColor=none;align=left;verticalAlign=middle;spacingLeft=4;spacingRight=4;overflow=hidden;points=[[0,0.5],[1,0.5]];portConstraint=eastwest;rotatable=0;fontSize=12;" parent="B5mQjCqMpTKeqFQhilP3-12" vertex="1">
          <mxGeometry y="90" width="160" height="30" as="geometry" />
        </mxCell>
        <mxCell id="B5mQjCqMpTKeqFQhilP3-53" style="edgeStyle=orthogonalEdgeStyle;rounded=0;orthogonalLoop=1;jettySize=auto;html=1;entryX=0.438;entryY=1;entryDx=0;entryDy=0;entryPerimeter=0;fontSize=12;endArrow=block;endFill=0;" parent="1" source="B5mQjCqMpTKeqFQhilP3-16" target="B5mQjCqMpTKeqFQhilP3-7" edge="1">
          <mxGeometry relative="1" as="geometry">
            <Array as="points">
              <mxPoint x="140" y="320" />
              <mxPoint x="680" y="320" />
            </Array>
          </mxGeometry>
        </mxCell>
        <mxCell id="B5mQjCqMpTKeqFQhilP3-145" value="0..*" style="edgeLabel;html=1;align=center;verticalAlign=middle;resizable=0;points=[];fontSize=12;" parent="B5mQjCqMpTKeqFQhilP3-53" vertex="1" connectable="0">
          <mxGeometry x="-0.8118" y="-2" relative="1" as="geometry">
            <mxPoint x="-22" y="52" as="offset" />
          </mxGeometry>
        </mxCell>
        <mxCell id="nRXnl9KmNHgFB3vZUYHG-23" value="1" style="edgeLabel;html=1;align=center;verticalAlign=middle;resizable=0;points=[];" parent="B5mQjCqMpTKeqFQhilP3-53" vertex="1" connectable="0">
          <mxGeometry x="0.9433" relative="1" as="geometry">
            <mxPoint x="-10" y="-9" as="offset" />
          </mxGeometry>
        </mxCell>
        <mxCell id="B5mQjCqMpTKeqFQhilP3-82" style="edgeStyle=orthogonalEdgeStyle;rounded=0;orthogonalLoop=1;jettySize=auto;html=1;fontSize=12;startArrow=diamondThin;startFill=1;endArrow=none;endFill=0;" parent="1" source="B5mQjCqMpTKeqFQhilP3-16" target="B5mQjCqMpTKeqFQhilP3-78" edge="1">
          <mxGeometry relative="1" as="geometry" />
        </mxCell>
        <mxCell id="B5mQjCqMpTKeqFQhilP3-87" style="edgeStyle=orthogonalEdgeStyle;rounded=0;orthogonalLoop=1;jettySize=auto;html=1;fontSize=12;startArrow=diamondThin;startFill=0;endArrow=none;endFill=0;" parent="1" source="B5mQjCqMpTKeqFQhilP3-16" target="B5mQjCqMpTKeqFQhilP3-83" edge="1">
          <mxGeometry relative="1" as="geometry" />
        </mxCell>
        <mxCell id="B5mQjCqMpTKeqFQhilP3-16" value="Patient" style="swimlane;fontStyle=0;childLayout=stackLayout;horizontal=1;startSize=30;horizontalStack=0;resizeParent=1;resizeParentMax=0;resizeLast=0;collapsible=1;marginBottom=0;fontSize=12;strokeWidth=1;" parent="1" vertex="1">
          <mxGeometry x="50" y="370" width="180" height="120" as="geometry" />
        </mxCell>
        <mxCell id="B5mQjCqMpTKeqFQhilP3-17" value="List&lt;Disease&gt; disease" style="text;strokeColor=none;fillColor=none;align=left;verticalAlign=middle;spacingLeft=4;spacingRight=4;overflow=hidden;points=[[0,0.5],[1,0.5]];portConstraint=eastwest;rotatable=0;fontSize=12;" parent="B5mQjCqMpTKeqFQhilP3-16" vertex="1">
          <mxGeometry y="30" width="180" height="30" as="geometry" />
        </mxCell>
        <mxCell id="B5mQjCqMpTKeqFQhilP3-18" value="-List&lt;Journal&gt; journals" style="text;strokeColor=none;fillColor=none;align=left;verticalAlign=middle;spacingLeft=4;spacingRight=4;overflow=hidden;points=[[0,0.5],[1,0.5]];portConstraint=eastwest;rotatable=0;fontSize=12;" parent="B5mQjCqMpTKeqFQhilP3-16" vertex="1">
          <mxGeometry y="60" width="180" height="30" as="geometry" />
        </mxCell>
        <mxCell id="B5mQjCqMpTKeqFQhilP3-19" value="List&lt;Notification&gt; notifications" style="text;strokeColor=none;fillColor=none;align=left;verticalAlign=middle;spacingLeft=4;spacingRight=4;overflow=hidden;points=[[0,0.5],[1,0.5]];portConstraint=eastwest;rotatable=0;fontSize=12;" parent="B5mQjCqMpTKeqFQhilP3-16" vertex="1">
          <mxGeometry y="90" width="180" height="30" as="geometry" />
        </mxCell>
        <mxCell id="B5mQjCqMpTKeqFQhilP3-25" style="edgeStyle=orthogonalEdgeStyle;rounded=0;orthogonalLoop=1;jettySize=auto;html=1;fontSize=12;endArrow=block;endFill=0;" parent="1" source="B5mQjCqMpTKeqFQhilP3-20" target="B5mQjCqMpTKeqFQhilP3-4" edge="1">
          <mxGeometry relative="1" as="geometry">
            <Array as="points">
              <mxPoint x="560" y="400" />
              <mxPoint x="720" y="400" />
            </Array>
          </mxGeometry>
        </mxCell>
        <mxCell id="B5mQjCqMpTKeqFQhilP3-132" value="0..*" style="edgeLabel;html=1;align=center;verticalAlign=middle;resizable=0;points=[];fontSize=12;" parent="B5mQjCqMpTKeqFQhilP3-25" vertex="1" connectable="0">
          <mxGeometry x="-0.8672" relative="1" as="geometry">
            <mxPoint x="10" y="8" as="offset" />
          </mxGeometry>
        </mxCell>
        <mxCell id="nRXnl9KmNHgFB3vZUYHG-22" value="1" style="edgeLabel;html=1;align=center;verticalAlign=middle;resizable=0;points=[];" parent="B5mQjCqMpTKeqFQhilP3-25" vertex="1" connectable="0">
          <mxGeometry x="0.8373" y="1" relative="1" as="geometry">
            <mxPoint x="-9" y="-13" as="offset" />
          </mxGeometry>
        </mxCell>
        <mxCell id="B5mQjCqMpTKeqFQhilP3-20" value="Employee" style="swimlane;fontStyle=2;childLayout=stackLayout;horizontal=1;startSize=30;horizontalStack=0;resizeParent=1;resizeParentMax=0;resizeLast=0;collapsible=1;marginBottom=0;fontSize=12;strokeWidth=1;" parent="1" vertex="1">
          <mxGeometry x="475" y="433.43" width="175" height="210" as="geometry" />
        </mxCell>
        <mxCell id="B5mQjCqMpTKeqFQhilP3-21" value="String id" style="text;strokeColor=none;fillColor=none;align=left;verticalAlign=middle;spacingLeft=4;spacingRight=4;overflow=hidden;points=[[0,0.5],[1,0.5]];portConstraint=eastwest;rotatable=0;fontSize=12;" parent="B5mQjCqMpTKeqFQhilP3-20" vertex="1">
          <mxGeometry y="30" width="175" height="30" as="geometry" />
        </mxCell>
        <mxCell id="WqXNfciUuAKUTGCagJN3-12" value="-List&lt;Bookings&gt; bookings" style="text;strokeColor=none;fillColor=none;align=left;verticalAlign=middle;spacingLeft=4;spacingRight=4;overflow=hidden;points=[[0,0.5],[1,0.5]];portConstraint=eastwest;rotatable=0;fontSize=12;fontStyle=1" parent="B5mQjCqMpTKeqFQhilP3-20" vertex="1">
          <mxGeometry y="60" width="175" height="30" as="geometry" />
        </mxCell>
        <mxCell id="B5mQjCqMpTKeqFQhilP3-22" value="float salary" style="text;strokeColor=none;fillColor=none;align=left;verticalAlign=middle;spacingLeft=4;spacingRight=4;overflow=hidden;points=[[0,0.5],[1,0.5]];portConstraint=eastwest;rotatable=0;fontSize=12;" parent="B5mQjCqMpTKeqFQhilP3-20" vertex="1">
          <mxGeometry y="90" width="175" height="30" as="geometry" />
        </mxCell>
        <mxCell id="B5mQjCqMpTKeqFQhilP3-130" value="float workingHours" style="text;strokeColor=none;fillColor=none;align=left;verticalAlign=middle;spacingLeft=4;spacingRight=4;overflow=hidden;points=[[0,0.5],[1,0.5]];portConstraint=eastwest;rotatable=0;fontSize=12;" parent="B5mQjCqMpTKeqFQhilP3-20" vertex="1">
          <mxGeometry y="120" width="175" height="30" as="geometry" />
        </mxCell>
        <mxCell id="B5mQjCqMpTKeqFQhilP3-131" value="float calculateSalary()" style="text;strokeColor=none;fillColor=none;align=left;verticalAlign=middle;spacingLeft=4;spacingRight=4;overflow=hidden;points=[[0,0.5],[1,0.5]];portConstraint=eastwest;rotatable=0;fontSize=12;" parent="B5mQjCqMpTKeqFQhilP3-20" vertex="1">
          <mxGeometry y="150" width="175" height="30" as="geometry" />
        </mxCell>
        <mxCell id="WqXNfciUuAKUTGCagJN3-19" value="Accessibility NONE" style="text;strokeColor=none;fillColor=none;align=left;verticalAlign=middle;spacingLeft=4;spacingRight=4;overflow=hidden;points=[[0,0.5],[1,0.5]];portConstraint=eastwest;rotatable=0;fontSize=12;" parent="B5mQjCqMpTKeqFQhilP3-20" vertex="1">
          <mxGeometry y="180" width="175" height="30" as="geometry" />
        </mxCell>
        <mxCell id="B5mQjCqMpTKeqFQhilP3-26" value="Equipment" style="swimlane;fontStyle=0;childLayout=stackLayout;horizontal=1;startSize=30;horizontalStack=0;resizeParent=1;resizeParentMax=0;resizeLast=0;collapsible=1;marginBottom=0;fontSize=12;strokeWidth=1;" parent="1" vertex="1">
          <mxGeometry x="-360" y="200.00000000000003" width="160" height="50" as="geometry" />
        </mxCell>
        <mxCell id="WqXNfciUuAKUTGCagJN3-11" value="boolean isReusable" style="text;html=1;align=center;verticalAlign=middle;resizable=0;points=[];autosize=1;strokeColor=none;fillColor=none;" parent="B5mQjCqMpTKeqFQhilP3-26" vertex="1">
          <mxGeometry y="30" width="160" height="20" as="geometry" />
        </mxCell>
        <mxCell id="B5mQjCqMpTKeqFQhilP3-43" value="Address" style="swimlane;fontStyle=2;childLayout=stackLayout;horizontal=1;startSize=30;horizontalStack=0;resizeParent=1;resizeParentMax=0;resizeLast=0;collapsible=1;marginBottom=0;fontSize=12;strokeWidth=1;" parent="1" vertex="1">
          <mxGeometry x="660" y="-280" width="160" height="120" as="geometry" />
        </mxCell>
        <mxCell id="B5mQjCqMpTKeqFQhilP3-44" value="String street" style="text;strokeColor=none;fillColor=none;align=left;verticalAlign=middle;spacingLeft=4;spacingRight=4;overflow=hidden;points=[[0,0.5],[1,0.5]];portConstraint=eastwest;rotatable=0;fontSize=12;" parent="B5mQjCqMpTKeqFQhilP3-43" vertex="1">
          <mxGeometry y="30" width="160" height="30" as="geometry" />
        </mxCell>
        <mxCell id="B5mQjCqMpTKeqFQhilP3-45" value="String zip" style="text;strokeColor=none;fillColor=none;align=left;verticalAlign=middle;spacingLeft=4;spacingRight=4;overflow=hidden;points=[[0,0.5],[1,0.5]];portConstraint=eastwest;rotatable=0;fontSize=12;" parent="B5mQjCqMpTKeqFQhilP3-43" vertex="1">
          <mxGeometry y="60" width="160" height="30" as="geometry" />
        </mxCell>
        <mxCell id="B5mQjCqMpTKeqFQhilP3-46" value="String country" style="text;strokeColor=none;fillColor=none;align=left;verticalAlign=middle;spacingLeft=4;spacingRight=4;overflow=hidden;points=[[0,0.5],[1,0.5]];portConstraint=eastwest;rotatable=0;fontSize=12;" parent="B5mQjCqMpTKeqFQhilP3-43" vertex="1">
          <mxGeometry y="90" width="160" height="30" as="geometry" />
        </mxCell>
        <mxCell id="B5mQjCqMpTKeqFQhilP3-47" value="1..*" style="edgeStyle=orthogonalEdgeStyle;rounded=0;orthogonalLoop=1;jettySize=auto;html=1;fontSize=12;endArrow=none;endFill=0;startArrow=diamond;startFill=0;" parent="1" source="B5mQjCqMpTKeqFQhilP3-4" target="B5mQjCqMpTKeqFQhilP3-43" edge="1">
          <mxGeometry x="-0.9259" y="20" relative="1" as="geometry">
            <mxPoint x="1030.0000000000005" y="70" as="targetPoint" />
            <Array as="points">
              <mxPoint x="750" y="80" />
              <mxPoint x="750" y="80" />
            </Array>
            <mxPoint as="offset" />
          </mxGeometry>
        </mxCell>
        <mxCell id="B5mQjCqMpTKeqFQhilP3-159" value="0..*" style="edgeLabel;html=1;align=center;verticalAlign=middle;resizable=0;points=[];fontSize=12;" parent="B5mQjCqMpTKeqFQhilP3-47" vertex="1" connectable="0">
          <mxGeometry x="0.5699" relative="1" as="geometry">
            <mxPoint x="-20" y="-48" as="offset" />
          </mxGeometry>
        </mxCell>
        <mxCell id="B5mQjCqMpTKeqFQhilP3-73" value="1" style="edgeStyle=orthogonalEdgeStyle;rounded=0;orthogonalLoop=1;jettySize=auto;html=1;fontSize=12;startArrow=diamond;startFill=1;endArrow=none;endFill=0;" parent="1" source="B5mQjCqMpTKeqFQhilP3-59" target="B5mQjCqMpTKeqFQhilP3-69" edge="1">
          <mxGeometry x="-0.9048" y="-10" relative="1" as="geometry">
            <Array as="points">
              <mxPoint x="190" y="-40" />
              <mxPoint x="190" y="-40" />
            </Array>
            <mxPoint as="offset" />
          </mxGeometry>
        </mxCell>
        <mxCell id="B5mQjCqMpTKeqFQhilP3-107" value="1..*" style="edgeLabel;html=1;align=center;verticalAlign=middle;resizable=0;points=[];fontSize=12;" parent="B5mQjCqMpTKeqFQhilP3-73" vertex="1" connectable="0">
          <mxGeometry x="0.5341" relative="1" as="geometry">
            <mxPoint x="-15" y="22" as="offset" />
          </mxGeometry>
        </mxCell>
        <mxCell id="B5mQjCqMpTKeqFQhilP3-75" style="edgeStyle=orthogonalEdgeStyle;rounded=0;orthogonalLoop=1;jettySize=auto;html=1;fontSize=12;startArrow=block;startFill=0;endArrow=none;endFill=0;" parent="1" source="nRXnl9KmNHgFB3vZUYHG-1" target="B5mQjCqMpTKeqFQhilP3-94" edge="1">
          <mxGeometry relative="1" as="geometry">
            <mxPoint x="480" y="106.72" as="targetPoint" />
            <Array as="points">
              <mxPoint x="-430" y="180.00000000000003" />
              <mxPoint x="-430" y="180.00000000000003" />
            </Array>
          </mxGeometry>
        </mxCell>
        <mxCell id="B5mQjCqMpTKeqFQhilP3-115" value="0..*" style="edgeLabel;html=1;align=center;verticalAlign=middle;resizable=0;points=[];fontSize=12;" parent="B5mQjCqMpTKeqFQhilP3-75" vertex="1" connectable="0">
          <mxGeometry x="0.8942" y="-2" relative="1" as="geometry">
            <mxPoint x="-8" y="18" as="offset" />
          </mxGeometry>
        </mxCell>
        <mxCell id="nRXnl9KmNHgFB3vZUYHG-11" value="1" style="edgeLabel;html=1;align=center;verticalAlign=middle;resizable=0;points=[];" parent="B5mQjCqMpTKeqFQhilP3-75" vertex="1" connectable="0">
          <mxGeometry x="-0.502" relative="1" as="geometry">
            <mxPoint x="-10" y="-3" as="offset" />
          </mxGeometry>
        </mxCell>
        <mxCell id="nRXnl9KmNHgFB3vZUYHG-12" value="0..*" style="edgeLabel;html=1;align=center;verticalAlign=middle;resizable=0;points=[];" parent="B5mQjCqMpTKeqFQhilP3-75" vertex="1" connectable="0">
          <mxGeometry x="0.8281" y="2" relative="1" as="geometry">
            <mxPoint x="-22" y="-6" as="offset" />
          </mxGeometry>
        </mxCell>
        <mxCell id="B5mQjCqMpTKeqFQhilP3-76" style="edgeStyle=orthogonalEdgeStyle;rounded=0;orthogonalLoop=1;jettySize=auto;html=1;fontSize=12;startArrow=block;startFill=0;endArrow=none;endFill=0;" parent="1" source="nRXnl9KmNHgFB3vZUYHG-1" target="B5mQjCqMpTKeqFQhilP3-26" edge="1">
          <mxGeometry relative="1" as="geometry">
            <Array as="points">
              <mxPoint x="-320" y="180.00000000000003" />
              <mxPoint x="-320" y="180.00000000000003" />
            </Array>
          </mxGeometry>
        </mxCell>
        <mxCell id="B5mQjCqMpTKeqFQhilP3-108" value="1" style="edgeLabel;html=1;align=center;verticalAlign=middle;resizable=0;points=[];fontSize=12;" parent="B5mQjCqMpTKeqFQhilP3-76" vertex="1" connectable="0">
          <mxGeometry x="-0.6838" y="-1" relative="1" as="geometry">
            <mxPoint x="-9" y="2" as="offset" />
          </mxGeometry>
        </mxCell>
        <mxCell id="B5mQjCqMpTKeqFQhilP3-109" value="0..*" style="edgeLabel;html=1;align=center;verticalAlign=middle;resizable=0;points=[];fontSize=12;" parent="B5mQjCqMpTKeqFQhilP3-76" vertex="1" connectable="0">
          <mxGeometry x="0.7249" y="2" relative="1" as="geometry">
            <mxPoint x="-22" y="-3" as="offset" />
          </mxGeometry>
        </mxCell>
        <mxCell id="B5mQjCqMpTKeqFQhilP3-88" style="edgeStyle=orthogonalEdgeStyle;rounded=0;orthogonalLoop=1;jettySize=auto;html=1;fontSize=12;startArrow=diamond;startFill=0;endArrow=none;endFill=0;" parent="1" source="B5mQjCqMpTKeqFQhilP3-59" target="B5mQjCqMpTKeqFQhilP3-4" edge="1">
          <mxGeometry relative="1" as="geometry">
            <Array as="points">
              <mxPoint x="280" y="-80" />
              <mxPoint x="660" y="-80" />
            </Array>
          </mxGeometry>
        </mxCell>
        <mxCell id="B5mQjCqMpTKeqFQhilP3-111" value="1" style="edgeLabel;html=1;align=center;verticalAlign=middle;resizable=0;points=[];fontSize=12;" parent="B5mQjCqMpTKeqFQhilP3-88" vertex="1" connectable="0">
          <mxGeometry x="-0.9052" y="1" relative="1" as="geometry">
            <mxPoint x="-51" y="-24" as="offset" />
          </mxGeometry>
        </mxCell>
        <mxCell id="B5mQjCqMpTKeqFQhilP3-112" value="1..*" style="edgeLabel;html=1;align=center;verticalAlign=middle;resizable=0;points=[];fontSize=12;" parent="B5mQjCqMpTKeqFQhilP3-88" vertex="1" connectable="0">
          <mxGeometry x="0.759" relative="1" as="geometry">
            <mxPoint x="-20" y="67" as="offset" />
          </mxGeometry>
        </mxCell>
        <mxCell id="nRXnl9KmNHgFB3vZUYHG-31" value="1" style="edgeLabel;html=1;align=center;verticalAlign=middle;resizable=0;points=[];" parent="B5mQjCqMpTKeqFQhilP3-88" vertex="1" connectable="0">
          <mxGeometry x="-0.9531" y="3" relative="1" as="geometry">
            <mxPoint x="-13" y="-7" as="offset" />
          </mxGeometry>
        </mxCell>
        <mxCell id="B5mQjCqMpTKeqFQhilP3-93" style="edgeStyle=orthogonalEdgeStyle;rounded=0;orthogonalLoop=1;jettySize=auto;html=1;fontSize=12;startArrow=diamond;startFill=0;endArrow=none;endFill=0;" parent="1" source="B5mQjCqMpTKeqFQhilP3-59" target="B5mQjCqMpTKeqFQhilP3-43" edge="1">
          <mxGeometry relative="1" as="geometry">
            <Array as="points">
              <mxPoint x="310" y="-130" />
              <mxPoint x="690" y="-130" />
            </Array>
          </mxGeometry>
        </mxCell>
        <mxCell id="B5mQjCqMpTKeqFQhilP3-113" value="1" style="edgeLabel;html=1;align=center;verticalAlign=middle;resizable=0;points=[];fontSize=12;" parent="B5mQjCqMpTKeqFQhilP3-93" vertex="1" connectable="0">
          <mxGeometry x="-0.9179" y="-1" relative="1" as="geometry">
            <mxPoint x="-12" y="-11" as="offset" />
          </mxGeometry>
        </mxCell>
        <mxCell id="B5mQjCqMpTKeqFQhilP3-114" value="1" style="edgeLabel;html=1;align=center;verticalAlign=middle;resizable=0;points=[];fontSize=12;" parent="B5mQjCqMpTKeqFQhilP3-93" vertex="1" connectable="0">
          <mxGeometry x="0.8686" y="-2" relative="1" as="geometry">
            <mxPoint x="-9" y="-18" as="offset" />
          </mxGeometry>
        </mxCell>
        <mxCell id="q-ojMvLr_y8LTL2l0AsS-33" style="edgeStyle=orthogonalEdgeStyle;rounded=0;orthogonalLoop=1;jettySize=auto;html=1;" parent="1" source="B5mQjCqMpTKeqFQhilP3-59" target="q-ojMvLr_y8LTL2l0AsS-24" edge="1">
          <mxGeometry relative="1" as="geometry">
            <Array as="points">
              <mxPoint x="-595" y="-310" />
            </Array>
          </mxGeometry>
        </mxCell>
        <mxCell id="q-ojMvLr_y8LTL2l0AsS-34" value="0..*" style="edgeLabel;html=1;align=center;verticalAlign=middle;resizable=0;points=[];" parent="q-ojMvLr_y8LTL2l0AsS-33" vertex="1" connectable="0">
          <mxGeometry x="0.3451" relative="1" as="geometry">
            <mxPoint x="535" y="70" as="offset" />
          </mxGeometry>
        </mxCell>
        <mxCell id="q-ojMvLr_y8LTL2l0AsS-36" value="1" style="edgeLabel;html=1;align=center;verticalAlign=middle;resizable=0;points=[];" parent="q-ojMvLr_y8LTL2l0AsS-33" vertex="1" connectable="0">
          <mxGeometry x="-0.9249" y="2" relative="1" as="geometry">
            <mxPoint x="11" y="-12" as="offset" />
          </mxGeometry>
        </mxCell>
        <mxCell id="B5mQjCqMpTKeqFQhilP3-59" value="Hospital" style="swimlane;fontStyle=0;childLayout=stackLayout;horizontal=1;startSize=30;horizontalStack=0;resizeParent=1;resizeParentMax=0;resizeLast=0;collapsible=1;marginBottom=0;fontSize=12;strokeWidth=1;" parent="1" vertex="1">
          <mxGeometry x="160" y="-325" width="160" height="210" as="geometry" />
        </mxCell>
        <mxCell id="B5mQjCqMpTKeqFQhilP3-60" value="String name" style="text;strokeColor=none;fillColor=none;align=left;verticalAlign=middle;spacingLeft=4;spacingRight=4;overflow=hidden;points=[[0,0.5],[1,0.5]];portConstraint=eastwest;rotatable=0;fontSize=12;" parent="B5mQjCqMpTKeqFQhilP3-59" vertex="1">
          <mxGeometry y="30" width="160" height="30" as="geometry" />
        </mxCell>
        <mxCell id="B5mQjCqMpTKeqFQhilP3-61" value="int maxCapacity" style="text;strokeColor=none;fillColor=none;align=left;verticalAlign=middle;spacingLeft=4;spacingRight=4;overflow=hidden;points=[[0,0.5],[1,0.5]];portConstraint=eastwest;rotatable=0;fontSize=12;" parent="B5mQjCqMpTKeqFQhilP3-59" vertex="1">
          <mxGeometry y="60" width="160" height="30" as="geometry" />
        </mxCell>
        <mxCell id="q-ojMvLr_y8LTL2l0AsS-10" value="Map&lt;Item, int&gt; storage " style="text;strokeColor=none;fillColor=none;align=left;verticalAlign=middle;spacingLeft=4;spacingRight=4;overflow=hidden;points=[[0,0.5],[1,0.5]];portConstraint=eastwest;rotatable=0;fontSize=12;" parent="B5mQjCqMpTKeqFQhilP3-59" vertex="1">
          <mxGeometry y="90" width="160" height="60" as="geometry" />
        </mxCell>
        <mxCell id="nRXnl9KmNHgFB3vZUYHG-32" value="List&lt;Person&gt; persons" style="text;strokeColor=none;fillColor=none;align=left;verticalAlign=middle;spacingLeft=4;spacingRight=4;overflow=hidden;points=[[0,0.5],[1,0.5]];portConstraint=eastwest;rotatable=0;fontSize=12;" parent="B5mQjCqMpTKeqFQhilP3-59" vertex="1">
          <mxGeometry y="150" width="160" height="30" as="geometry" />
        </mxCell>
        <mxCell id="nRXnl9KmNHgFB3vZUYHG-42" value="Archive archive" style="text;strokeColor=none;fillColor=none;align=left;verticalAlign=middle;spacingLeft=4;spacingRight=4;overflow=hidden;points=[[0,0.5],[1,0.5]];portConstraint=eastwest;rotatable=0;fontSize=12;" parent="B5mQjCqMpTKeqFQhilP3-59" vertex="1">
          <mxGeometry y="180" width="160" height="30" as="geometry" />
        </mxCell>
        <mxCell id="B5mQjCqMpTKeqFQhilP3-64" value="loginDetails" style="swimlane;fontStyle=2;childLayout=stackLayout;horizontal=1;startSize=30;horizontalStack=0;resizeParent=1;resizeParentMax=0;resizeLast=0;collapsible=1;marginBottom=0;fontSize=12;strokeWidth=1;" parent="1" vertex="1">
          <mxGeometry x="775" y="493.43" width="160" height="110" as="geometry" />
        </mxCell>
        <mxCell id="B5mQjCqMpTKeqFQhilP3-65" value="String password" style="text;strokeColor=none;fillColor=none;align=left;verticalAlign=middle;spacingLeft=4;spacingRight=4;overflow=hidden;points=[[0,0.5],[1,0.5]];portConstraint=eastwest;rotatable=0;fontSize=12;" parent="B5mQjCqMpTKeqFQhilP3-64" vertex="1">
          <mxGeometry y="30" width="160" height="40" as="geometry" />
        </mxCell>
        <mxCell id="B5mQjCqMpTKeqFQhilP3-66" value="String username" style="text;strokeColor=none;fillColor=none;align=left;verticalAlign=middle;spacingLeft=4;spacingRight=4;overflow=hidden;points=[[0,0.5],[1,0.5]];portConstraint=eastwest;rotatable=0;fontSize=12;" parent="B5mQjCqMpTKeqFQhilP3-64" vertex="1">
          <mxGeometry y="70" width="160" height="40" as="geometry" />
        </mxCell>
        <mxCell id="B5mQjCqMpTKeqFQhilP3-68" value="0..*" style="edgeStyle=orthogonalEdgeStyle;rounded=0;orthogonalLoop=1;jettySize=auto;html=1;fontSize=12;startArrow=diamond;startFill=0;endArrow=none;endFill=0;" parent="1" source="B5mQjCqMpTKeqFQhilP3-20" target="B5mQjCqMpTKeqFQhilP3-64" edge="1">
          <mxGeometry x="-0.8571" y="10" relative="1" as="geometry">
            <Array as="points">
              <mxPoint x="725" y="563.4300000000001" />
              <mxPoint x="725" y="563.4300000000001" />
            </Array>
            <mxPoint as="offset" />
          </mxGeometry>
        </mxCell>
        <mxCell id="B5mQjCqMpTKeqFQhilP3-143" value="1" style="edgeLabel;html=1;align=center;verticalAlign=middle;resizable=0;points=[];fontSize=12;" parent="B5mQjCqMpTKeqFQhilP3-68" vertex="1" connectable="0">
          <mxGeometry x="0.6917" y="1" relative="1" as="geometry">
            <mxPoint x="11" y="-9" as="offset" />
          </mxGeometry>
        </mxCell>
        <mxCell id="B5mQjCqMpTKeqFQhilP3-74" value="1" style="edgeStyle=orthogonalEdgeStyle;rounded=0;orthogonalLoop=1;jettySize=auto;html=1;fontSize=12;startArrow=diamond;startFill=1;endArrow=none;endFill=0;" parent="1" source="B5mQjCqMpTKeqFQhilP3-69" target="B5mQjCqMpTKeqFQhilP3-8" edge="1">
          <mxGeometry x="-0.9131" y="-10" relative="1" as="geometry">
            <Array as="points">
              <mxPoint x="140" y="220" />
            </Array>
            <mxPoint as="offset" />
          </mxGeometry>
        </mxCell>
        <mxCell id="B5mQjCqMpTKeqFQhilP3-106" value="1..*" style="edgeLabel;html=1;align=center;verticalAlign=middle;resizable=0;points=[];fontSize=12;" parent="B5mQjCqMpTKeqFQhilP3-74" vertex="1" connectable="0">
          <mxGeometry x="0.2258" relative="1" as="geometry">
            <mxPoint x="-71" y="-15" as="offset" />
          </mxGeometry>
        </mxCell>
        <mxCell id="B5mQjCqMpTKeqFQhilP3-69" value="Ward" style="swimlane;fontStyle=0;childLayout=stackLayout;horizontal=1;startSize=30;horizontalStack=0;resizeParent=1;resizeParentMax=0;resizeLast=0;collapsible=1;marginBottom=0;fontSize=12;strokeWidth=1;" parent="1" vertex="1">
          <mxGeometry x="110" y="20" width="160" height="90" as="geometry" />
        </mxCell>
        <mxCell id="B5mQjCqMpTKeqFQhilP3-70" value="String name" style="text;strokeColor=none;fillColor=none;align=left;verticalAlign=middle;spacingLeft=4;spacingRight=4;overflow=hidden;points=[[0,0.5],[1,0.5]];portConstraint=eastwest;rotatable=0;fontSize=12;" parent="B5mQjCqMpTKeqFQhilP3-69" vertex="1">
          <mxGeometry y="30" width="160" height="30" as="geometry" />
        </mxCell>
        <mxCell id="B5mQjCqMpTKeqFQhilP3-72" value="HashSet&lt;Room&gt; rooms" style="text;strokeColor=none;fillColor=none;align=left;verticalAlign=middle;spacingLeft=4;spacingRight=4;overflow=hidden;points=[[0,0.5],[1,0.5]];portConstraint=eastwest;rotatable=0;fontSize=12;" parent="B5mQjCqMpTKeqFQhilP3-69" vertex="1">
          <mxGeometry y="60" width="160" height="30" as="geometry" />
        </mxCell>
        <mxCell id="B5mQjCqMpTKeqFQhilP3-78" value="Disease" style="swimlane;fontStyle=0;childLayout=stackLayout;horizontal=1;startSize=30;horizontalStack=0;resizeParent=1;resizeParentMax=0;resizeLast=0;collapsible=1;marginBottom=0;fontSize=12;strokeWidth=1;" parent="1" vertex="1">
          <mxGeometry x="-159" y="586" width="160" height="120" as="geometry" />
        </mxCell>
        <mxCell id="B5mQjCqMpTKeqFQhilP3-79" value="List&lt;Symptom&gt; symptoms" style="text;strokeColor=none;fillColor=none;align=left;verticalAlign=middle;spacingLeft=4;spacingRight=4;overflow=hidden;points=[[0,0.5],[1,0.5]];portConstraint=eastwest;rotatable=0;fontSize=12;" parent="B5mQjCqMpTKeqFQhilP3-78" vertex="1">
          <mxGeometry y="30" width="160" height="30" as="geometry" />
        </mxCell>
        <mxCell id="B5mQjCqMpTKeqFQhilP3-80" value="String name" style="text;strokeColor=none;fillColor=none;align=left;verticalAlign=middle;spacingLeft=4;spacingRight=4;overflow=hidden;points=[[0,0.5],[1,0.5]];portConstraint=eastwest;rotatable=0;fontSize=12;" parent="B5mQjCqMpTKeqFQhilP3-78" vertex="1">
          <mxGeometry y="60" width="160" height="30" as="geometry" />
        </mxCell>
        <mxCell id="B5mQjCqMpTKeqFQhilP3-81" value="-" style="text;strokeColor=none;fillColor=none;align=left;verticalAlign=middle;spacingLeft=4;spacingRight=4;overflow=hidden;points=[[0,0.5],[1,0.5]];portConstraint=eastwest;rotatable=0;fontSize=12;" parent="B5mQjCqMpTKeqFQhilP3-78" vertex="1">
          <mxGeometry y="90" width="160" height="30" as="geometry" />
        </mxCell>
        <mxCell id="B5mQjCqMpTKeqFQhilP3-83" value="Journal" style="swimlane;fontStyle=0;childLayout=stackLayout;horizontal=1;startSize=30;horizontalStack=0;resizeParent=1;resizeParentMax=0;resizeLast=0;collapsible=1;marginBottom=0;fontSize=12;strokeWidth=1;" parent="1" vertex="1">
          <mxGeometry x="60" y="600" width="160" height="150" as="geometry" />
        </mxCell>
        <mxCell id="B5mQjCqMpTKeqFQhilP3-84" value="-Patient pat" style="text;strokeColor=none;fillColor=none;align=left;verticalAlign=middle;spacingLeft=4;spacingRight=4;overflow=hidden;points=[[0,0.5],[1,0.5]];portConstraint=eastwest;rotatable=0;fontSize=12;" parent="B5mQjCqMpTKeqFQhilP3-83" vertex="1">
          <mxGeometry y="30" width="160" height="30" as="geometry" />
        </mxCell>
        <mxCell id="B5mQjCqMpTKeqFQhilP3-85" value="-LocalDateTime date" style="text;strokeColor=none;fillColor=none;align=left;verticalAlign=middle;spacingLeft=4;spacingRight=4;overflow=hidden;points=[[0,0.5],[1,0.5]];portConstraint=eastwest;rotatable=0;fontSize=12;" parent="B5mQjCqMpTKeqFQhilP3-83" vertex="1">
          <mxGeometry y="60" width="160" height="30" as="geometry" />
        </mxCell>
        <mxCell id="B5mQjCqMpTKeqFQhilP3-86" value="- String note" style="text;strokeColor=none;fillColor=none;align=left;verticalAlign=middle;spacingLeft=4;spacingRight=4;overflow=hidden;points=[[0,0.5],[1,0.5]];portConstraint=eastwest;rotatable=0;fontSize=12;" parent="B5mQjCqMpTKeqFQhilP3-83" vertex="1">
          <mxGeometry y="90" width="160" height="30" as="geometry" />
        </mxCell>
        <mxCell id="nRXnl9KmNHgFB3vZUYHG-40" value="  Doctor doctor" style="text;strokeColor=none;fillColor=none;align=left;verticalAlign=middle;spacingLeft=4;spacingRight=4;overflow=hidden;points=[[0,0.5],[1,0.5]];portConstraint=eastwest;rotatable=0;fontSize=12;" parent="B5mQjCqMpTKeqFQhilP3-83" vertex="1">
          <mxGeometry y="120" width="160" height="30" as="geometry" />
        </mxCell>
        <mxCell id="B5mQjCqMpTKeqFQhilP3-94" value="Medicine" style="swimlane;fontStyle=0;childLayout=stackLayout;horizontal=1;startSize=30;horizontalStack=0;resizeParent=1;resizeParentMax=0;resizeLast=0;collapsible=1;marginBottom=0;fontSize=12;strokeWidth=1;" parent="1" vertex="1">
          <mxGeometry x="-580" y="200" width="181" height="60" as="geometry" />
        </mxCell>
        <mxCell id="WqXNfciUuAKUTGCagJN3-9" value="LocalDateTime expirationDate" style="text;html=1;strokeColor=none;fillColor=none;align=center;verticalAlign=middle;whiteSpace=wrap;rounded=0;" parent="B5mQjCqMpTKeqFQhilP3-94" vertex="1">
          <mxGeometry y="30" width="181" height="30" as="geometry" />
        </mxCell>
        <mxCell id="B5mQjCqMpTKeqFQhilP3-118" value="1" style="text;html=1;align=center;verticalAlign=middle;resizable=0;points=[];autosize=1;strokeColor=none;fillColor=none;fontSize=12;" parent="1" vertex="1">
          <mxGeometry x="130" y="-210" width="20" height="20" as="geometry" />
        </mxCell>
        <mxCell id="B5mQjCqMpTKeqFQhilP3-125" value="1" style="edgeStyle=orthogonalEdgeStyle;rounded=0;orthogonalLoop=1;jettySize=auto;html=1;fontSize=12;startArrow=none;startFill=0;endArrow=block;endFill=0;" parent="1" source="B5mQjCqMpTKeqFQhilP3-119" target="B5mQjCqMpTKeqFQhilP3-20" edge="1">
          <mxGeometry x="0.8954" y="10" relative="1" as="geometry">
            <Array as="points">
              <mxPoint x="375" y="638.4300000000001" />
              <mxPoint x="485" y="638.4300000000001" />
            </Array>
            <mxPoint as="offset" />
          </mxGeometry>
        </mxCell>
        <mxCell id="nRXnl9KmNHgFB3vZUYHG-13" value="0..*" style="edgeLabel;html=1;align=center;verticalAlign=middle;resizable=0;points=[];" parent="B5mQjCqMpTKeqFQhilP3-125" vertex="1" connectable="0">
          <mxGeometry x="-0.8256" y="-3" relative="1" as="geometry">
            <mxPoint x="-18" y="9" as="offset" />
          </mxGeometry>
        </mxCell>
        <mxCell id="B5mQjCqMpTKeqFQhilP3-141" style="edgeStyle=orthogonalEdgeStyle;rounded=0;orthogonalLoop=1;jettySize=auto;html=1;fontSize=12;startArrow=none;startFill=0;endArrow=classicThin;endFill=1;exitX=0.25;exitY=0;exitDx=0;exitDy=0;" parent="1" source="B5mQjCqMpTKeqFQhilP3-119" target="B5mQjCqMpTKeqFQhilP3-16" edge="1">
          <mxGeometry relative="1" as="geometry">
            <Array as="points">
              <mxPoint x="340" y="430" />
            </Array>
          </mxGeometry>
        </mxCell>
        <mxCell id="nRXnl9KmNHgFB3vZUYHG-26" value="0..*" style="edgeLabel;html=1;align=center;verticalAlign=middle;resizable=0;points=[];" parent="B5mQjCqMpTKeqFQhilP3-141" vertex="1" connectable="0">
          <mxGeometry x="0.8394" y="3" relative="1" as="geometry">
            <mxPoint x="-12" y="-13" as="offset" />
          </mxGeometry>
        </mxCell>
        <mxCell id="B5mQjCqMpTKeqFQhilP3-119" value="Doctor" style="swimlane;fontStyle=0;childLayout=stackLayout;horizontal=1;startSize=30;horizontalStack=0;resizeParent=1;resizeParentMax=0;resizeLast=0;collapsible=1;marginBottom=0;fontSize=12;strokeWidth=1;" parent="1" vertex="1">
          <mxGeometry x="295" y="693.4300000000001" width="160" height="150" as="geometry" />
        </mxCell>
        <mxCell id="B5mQjCqMpTKeqFQhilP3-120" value="List&lt;Patient&gt; patients" style="text;strokeColor=none;fillColor=none;align=left;verticalAlign=middle;spacingLeft=4;spacingRight=4;overflow=hidden;points=[[0,0.5],[1,0.5]];portConstraint=eastwest;rotatable=0;fontSize=12;" parent="B5mQjCqMpTKeqFQhilP3-119" vertex="1">
          <mxGeometry y="30" width="160" height="30" as="geometry" />
        </mxCell>
        <mxCell id="B5mQjCqMpTKeqFQhilP3-121" value="Speciality spec" style="text;strokeColor=none;fillColor=none;align=left;verticalAlign=middle;spacingLeft=4;spacingRight=4;overflow=hidden;points=[[0,0.5],[1,0.5]];portConstraint=eastwest;rotatable=0;fontSize=12;" parent="B5mQjCqMpTKeqFQhilP3-119" vertex="1">
          <mxGeometry y="60" width="160" height="30" as="geometry" />
        </mxCell>
        <mxCell id="WqXNfciUuAKUTGCagJN3-30" value="Accessibility DOCTOR" style="text;strokeColor=none;fillColor=none;align=left;verticalAlign=middle;spacingLeft=4;spacingRight=4;overflow=hidden;points=[[0,0.5],[1,0.5]];portConstraint=eastwest;rotatable=0;fontSize=12;" parent="B5mQjCqMpTKeqFQhilP3-119" vertex="1">
          <mxGeometry y="90" width="160" height="30" as="geometry" />
        </mxCell>
        <mxCell id="B5mQjCqMpTKeqFQhilP3-122" value="+void createBooking()" style="text;strokeColor=none;fillColor=none;align=left;verticalAlign=middle;spacingLeft=4;spacingRight=4;overflow=hidden;points=[[0,0.5],[1,0.5]];portConstraint=eastwest;rotatable=0;fontSize=12;" parent="B5mQjCqMpTKeqFQhilP3-119" vertex="1">
          <mxGeometry y="120" width="160" height="30" as="geometry" />
        </mxCell>
        <mxCell id="B5mQjCqMpTKeqFQhilP3-162" style="edgeStyle=orthogonalEdgeStyle;rounded=0;orthogonalLoop=1;jettySize=auto;html=1;fontSize=12;startArrow=none;startFill=0;endArrow=open;endFill=0;" parent="1" source="B5mQjCqMpTKeqFQhilP3-146" target="B5mQjCqMpTKeqFQhilP3-8" edge="1">
          <mxGeometry relative="1" as="geometry">
            <Array as="points">
              <mxPoint x="160" y="270" />
              <mxPoint x="160" y="270" />
            </Array>
          </mxGeometry>
        </mxCell>
        <mxCell id="ef3XcoiX8iwjNsqz5C6_-13" value="0..*" style="edgeLabel;html=1;align=center;verticalAlign=middle;resizable=0;points=[];" vertex="1" connectable="0" parent="B5mQjCqMpTKeqFQhilP3-162">
          <mxGeometry x="-0.8449" y="1" relative="1" as="geometry">
            <mxPoint y="9" as="offset" />
          </mxGeometry>
        </mxCell>
        <mxCell id="B5mQjCqMpTKeqFQhilP3-164" style="edgeStyle=orthogonalEdgeStyle;rounded=0;orthogonalLoop=1;jettySize=auto;html=1;fontSize=12;startArrow=none;startFill=0;endArrow=diamondThin;endFill=1;" parent="1" source="B5mQjCqMpTKeqFQhilP3-146" edge="1">
          <mxGeometry relative="1" as="geometry">
            <Array as="points">
              <mxPoint x="400" y="150" />
            </Array>
            <mxPoint x="610" y="150" as="targetPoint" />
          </mxGeometry>
        </mxCell>
        <mxCell id="LeWQNQjI-AW6BPyhMRMa-22" style="edgeStyle=orthogonalEdgeStyle;rounded=0;orthogonalLoop=1;jettySize=auto;html=1;" parent="1" source="B5mQjCqMpTKeqFQhilP3-146" target="LeWQNQjI-AW6BPyhMRMa-1" edge="1">
          <mxGeometry relative="1" as="geometry">
            <Array as="points">
              <mxPoint x="400" y="70" />
              <mxPoint x="400" y="70" />
            </Array>
          </mxGeometry>
        </mxCell>
        <mxCell id="B5mQjCqMpTKeqFQhilP3-146" value="Booking" style="swimlane;fontStyle=0;childLayout=stackLayout;horizontal=1;startSize=30;horizontalStack=0;resizeParent=1;resizeParentMax=0;resizeLast=0;collapsible=1;marginBottom=0;fontSize=12;strokeWidth=1;" parent="1" vertex="1">
          <mxGeometry x="285" y="130" width="160" height="180" as="geometry" />
        </mxCell>
        <mxCell id="B5mQjCqMpTKeqFQhilP3-147" value="LocalDateTime date" style="text;strokeColor=none;fillColor=none;align=left;verticalAlign=middle;spacingLeft=4;spacingRight=4;overflow=hidden;points=[[0,0.5],[1,0.5]];portConstraint=eastwest;rotatable=0;fontSize=12;" parent="B5mQjCqMpTKeqFQhilP3-146" vertex="1">
          <mxGeometry y="30" width="160" height="30" as="geometry" />
        </mxCell>
        <mxCell id="B5mQjCqMpTKeqFQhilP3-148" value="List&lt;Patient&gt;" style="text;strokeColor=none;fillColor=none;align=left;verticalAlign=middle;spacingLeft=4;spacingRight=4;overflow=hidden;points=[[0,0.5],[1,0.5]];portConstraint=eastwest;rotatable=0;fontSize=12;" parent="B5mQjCqMpTKeqFQhilP3-146" vertex="1">
          <mxGeometry y="60" width="160" height="30" as="geometry" />
        </mxCell>
        <mxCell id="B5mQjCqMpTKeqFQhilP3-149" value="List&lt;Employee&gt;" style="text;strokeColor=none;fillColor=none;align=left;verticalAlign=middle;spacingLeft=4;spacingRight=4;overflow=hidden;points=[[0,0.5],[1,0.5]];portConstraint=eastwest;rotatable=0;fontSize=12;" parent="B5mQjCqMpTKeqFQhilP3-146" vertex="1">
          <mxGeometry y="90" width="160" height="30" as="geometry" />
        </mxCell>
        <mxCell id="ef3XcoiX8iwjNsqz5C6_-7" value="Ward ward" style="text;strokeColor=none;fillColor=none;align=left;verticalAlign=middle;spacingLeft=4;spacingRight=4;overflow=hidden;points=[[0,0.5],[1,0.5]];portConstraint=eastwest;rotatable=0;fontSize=12;" vertex="1" parent="B5mQjCqMpTKeqFQhilP3-146">
          <mxGeometry y="120" width="160" height="30" as="geometry" />
        </mxCell>
        <mxCell id="ef3XcoiX8iwjNsqz5C6_-5" value="Room room" style="text;strokeColor=none;fillColor=none;align=left;verticalAlign=middle;spacingLeft=4;spacingRight=4;overflow=hidden;points=[[0,0.5],[1,0.5]];portConstraint=eastwest;rotatable=0;fontSize=12;" vertex="1" parent="B5mQjCqMpTKeqFQhilP3-146">
          <mxGeometry y="150" width="160" height="30" as="geometry" />
        </mxCell>
        <mxCell id="B5mQjCqMpTKeqFQhilP3-172" style="edgeStyle=orthogonalEdgeStyle;rounded=0;orthogonalLoop=1;jettySize=auto;html=1;fontSize=12;startArrow=none;startFill=0;endArrow=block;endFill=0;" parent="1" source="B5mQjCqMpTKeqFQhilP3-168" target="B5mQjCqMpTKeqFQhilP3-20" edge="1">
          <mxGeometry relative="1" as="geometry">
            <Array as="points">
              <mxPoint x="575" y="663.4300000000001" />
              <mxPoint x="575" y="663.4300000000001" />
            </Array>
          </mxGeometry>
        </mxCell>
        <mxCell id="nRXnl9KmNHgFB3vZUYHG-18" value="1" style="edgeLabel;html=1;align=center;verticalAlign=middle;resizable=0;points=[];" parent="B5mQjCqMpTKeqFQhilP3-172" vertex="1" connectable="0">
          <mxGeometry x="0.8796" y="1" relative="1" as="geometry">
            <mxPoint x="-9" y="4" as="offset" />
          </mxGeometry>
        </mxCell>
        <mxCell id="nRXnl9KmNHgFB3vZUYHG-19" value="0..*" style="edgeLabel;html=1;align=center;verticalAlign=middle;resizable=0;points=[];" parent="B5mQjCqMpTKeqFQhilP3-172" vertex="1" connectable="0">
          <mxGeometry x="-0.7007" y="1" relative="1" as="geometry">
            <mxPoint x="-19" y="27" as="offset" />
          </mxGeometry>
        </mxCell>
        <mxCell id="u0HvfiVG0HD8jwC7soJ5-1" value="1" style="edgeLabel;html=1;align=center;verticalAlign=middle;resizable=0;points=[];" parent="B5mQjCqMpTKeqFQhilP3-172" vertex="1" connectable="0">
          <mxGeometry x="0.8796" y="1" relative="1" as="geometry">
            <mxPoint x="51" y="4" as="offset" />
          </mxGeometry>
        </mxCell>
        <mxCell id="u0HvfiVG0HD8jwC7soJ5-2" value="1..*" style="edgeLabel;html=1;align=center;verticalAlign=middle;resizable=0;points=[];" parent="B5mQjCqMpTKeqFQhilP3-172" vertex="1" connectable="0">
          <mxGeometry x="-0.7" y="-3" relative="1" as="geometry">
            <mxPoint x="-13" y="-2" as="offset" />
          </mxGeometry>
        </mxCell>
        <mxCell id="B5mQjCqMpTKeqFQhilP3-168" value="Receptionist" style="swimlane;fontStyle=0;childLayout=stackLayout;horizontal=1;startSize=30;horizontalStack=0;resizeParent=1;resizeParentMax=0;resizeLast=0;collapsible=1;marginBottom=0;fontSize=12;strokeWidth=1;" parent="1" vertex="1">
          <mxGeometry x="495" y="693.4300000000001" width="170" height="150" as="geometry" />
        </mxCell>
        <mxCell id="B5mQjCqMpTKeqFQhilP3-169" value="-List&lt;Orders&gt; orders" style="text;strokeColor=none;fillColor=none;align=left;verticalAlign=middle;spacingLeft=4;spacingRight=4;overflow=hidden;points=[[0,0.5],[1,0.5]];portConstraint=eastwest;rotatable=0;fontSize=12;" parent="B5mQjCqMpTKeqFQhilP3-168" vertex="1">
          <mxGeometry y="30" width="170" height="30" as="geometry" />
        </mxCell>
        <mxCell id="WqXNfciUuAKUTGCagJN3-13" value="+void createOrder()" style="text;strokeColor=none;fillColor=none;align=left;verticalAlign=middle;spacingLeft=4;spacingRight=4;overflow=hidden;points=[[0,0.5],[1,0.5]];portConstraint=eastwest;rotatable=0;fontSize=12;" parent="B5mQjCqMpTKeqFQhilP3-168" vertex="1">
          <mxGeometry y="60" width="170" height="30" as="geometry" />
        </mxCell>
        <mxCell id="B5mQjCqMpTKeqFQhilP3-171" value="+void createBooking()" style="text;strokeColor=none;fillColor=none;align=left;verticalAlign=middle;spacingLeft=4;spacingRight=4;overflow=hidden;points=[[0,0.5],[1,0.5]];portConstraint=eastwest;rotatable=0;fontSize=12;" parent="B5mQjCqMpTKeqFQhilP3-168" vertex="1">
          <mxGeometry y="90" width="170" height="30" as="geometry" />
        </mxCell>
        <mxCell id="WqXNfciUuAKUTGCagJN3-31" value="Accessibility RECEPTIONIST" style="text;strokeColor=none;fillColor=none;align=left;verticalAlign=middle;spacingLeft=4;spacingRight=4;overflow=hidden;points=[[0,0.5],[1,0.5]];portConstraint=eastwest;rotatable=0;fontSize=12;" parent="B5mQjCqMpTKeqFQhilP3-168" vertex="1">
          <mxGeometry y="120" width="170" height="30" as="geometry" />
        </mxCell>
        <mxCell id="B5mQjCqMpTKeqFQhilP3-182" style="edgeStyle=orthogonalEdgeStyle;rounded=0;orthogonalLoop=1;jettySize=auto;html=1;fontSize=12;startArrow=none;startFill=0;endArrow=block;endFill=0;" parent="1" source="B5mQjCqMpTKeqFQhilP3-177" target="B5mQjCqMpTKeqFQhilP3-20" edge="1">
          <mxGeometry relative="1" as="geometry">
            <Array as="points">
              <mxPoint x="765" y="633.4300000000001" />
              <mxPoint x="615" y="633.4300000000001" />
            </Array>
          </mxGeometry>
        </mxCell>
        <mxCell id="B5mQjCqMpTKeqFQhilP3-177" value="Admin" style="swimlane;fontStyle=0;childLayout=stackLayout;horizontal=1;startSize=30;horizontalStack=0;resizeParent=1;resizeParentMax=0;resizeLast=0;collapsible=1;marginBottom=0;fontSize=12;strokeWidth=1;" parent="1" vertex="1">
          <mxGeometry x="675" y="694.4300000000001" width="160" height="120" as="geometry" />
        </mxCell>
        <mxCell id="B5mQjCqMpTKeqFQhilP3-178" value="-Accessibililty ALL" style="text;strokeColor=none;fillColor=none;align=left;verticalAlign=middle;spacingLeft=4;spacingRight=4;overflow=hidden;points=[[0,0.5],[1,0.5]];portConstraint=eastwest;rotatable=0;fontSize=12;" parent="B5mQjCqMpTKeqFQhilP3-177" vertex="1">
          <mxGeometry y="30" width="160" height="30" as="geometry" />
        </mxCell>
        <mxCell id="B5mQjCqMpTKeqFQhilP3-179" value="+void addUser()" style="text;strokeColor=none;fillColor=none;align=left;verticalAlign=middle;spacingLeft=4;spacingRight=4;overflow=hidden;points=[[0,0.5],[1,0.5]];portConstraint=eastwest;rotatable=0;fontSize=12;" parent="B5mQjCqMpTKeqFQhilP3-177" vertex="1">
          <mxGeometry y="60" width="160" height="30" as="geometry" />
        </mxCell>
        <mxCell id="B5mQjCqMpTKeqFQhilP3-180" value="-" style="text;strokeColor=none;fillColor=none;align=left;verticalAlign=middle;spacingLeft=4;spacingRight=4;overflow=hidden;points=[[0,0.5],[1,0.5]];portConstraint=eastwest;rotatable=0;fontSize=12;" parent="B5mQjCqMpTKeqFQhilP3-177" vertex="1">
          <mxGeometry y="90" width="160" height="30" as="geometry" />
        </mxCell>
        <mxCell id="DDVY3Nt3nS0iTd7MeDLq-1" value="&lt;&lt;enumeration&gt;&gt;&#xa;Symptom" style="swimlane;fontStyle=0;childLayout=stackLayout;horizontal=1;startSize=30;horizontalStack=0;resizeParent=1;resizeParentMax=0;resizeLast=0;collapsible=1;marginBottom=0;fontSize=12;strokeWidth=1;" parent="1" vertex="1">
          <mxGeometry x="-450" y="586" width="160" height="120" as="geometry" />
        </mxCell>
        <mxCell id="DDVY3Nt3nS0iTd7MeDLq-2" value="FEVER" style="text;strokeColor=none;fillColor=none;align=left;verticalAlign=middle;spacingLeft=4;spacingRight=4;overflow=hidden;points=[[0,0.5],[1,0.5]];portConstraint=eastwest;rotatable=0;fontSize=12;" parent="DDVY3Nt3nS0iTd7MeDLq-1" vertex="1">
          <mxGeometry y="30" width="160" height="30" as="geometry" />
        </mxCell>
        <mxCell id="DDVY3Nt3nS0iTd7MeDLq-3" value="-" style="text;strokeColor=none;fillColor=none;align=left;verticalAlign=middle;spacingLeft=4;spacingRight=4;overflow=hidden;points=[[0,0.5],[1,0.5]];portConstraint=eastwest;rotatable=0;fontSize=12;" parent="DDVY3Nt3nS0iTd7MeDLq-1" vertex="1">
          <mxGeometry y="60" width="160" height="30" as="geometry" />
        </mxCell>
        <mxCell id="DDVY3Nt3nS0iTd7MeDLq-4" value="-" style="text;strokeColor=none;fillColor=none;align=left;verticalAlign=middle;spacingLeft=4;spacingRight=4;overflow=hidden;points=[[0,0.5],[1,0.5]];portConstraint=eastwest;rotatable=0;fontSize=12;" parent="DDVY3Nt3nS0iTd7MeDLq-1" vertex="1">
          <mxGeometry y="90" width="160" height="30" as="geometry" />
        </mxCell>
        <mxCell id="LeWQNQjI-AW6BPyhMRMa-21" value="1" style="edgeStyle=orthogonalEdgeStyle;rounded=0;orthogonalLoop=1;jettySize=auto;html=1;" parent="1" source="LeWQNQjI-AW6BPyhMRMa-1" target="B5mQjCqMpTKeqFQhilP3-59" edge="1">
          <mxGeometry x="-0.9286" y="10" relative="1" as="geometry">
            <Array as="points">
              <mxPoint x="365" y="-50" />
              <mxPoint x="240" y="-50" />
            </Array>
            <mxPoint as="offset" />
          </mxGeometry>
        </mxCell>
        <mxCell id="LeWQNQjI-AW6BPyhMRMa-1" value="Archive" style="swimlane;fontStyle=0;childLayout=stackLayout;horizontal=1;startSize=30;horizontalStack=0;resizeParent=1;resizeParentMax=0;resizeLast=0;collapsible=1;marginBottom=0;fontSize=12;strokeWidth=1;" parent="1" vertex="1">
          <mxGeometry x="280" y="-30" width="170" height="120" as="geometry" />
        </mxCell>
        <mxCell id="LeWQNQjI-AW6BPyhMRMa-2" value="List&lt;Patient&gt; patient" style="text;strokeColor=none;fillColor=none;align=left;verticalAlign=middle;spacingLeft=4;spacingRight=4;overflow=hidden;points=[[0,0.5],[1,0.5]];portConstraint=eastwest;rotatable=0;fontSize=12;fontStyle=0" parent="LeWQNQjI-AW6BPyhMRMa-1" vertex="1">
          <mxGeometry y="30" width="170" height="30" as="geometry" />
        </mxCell>
        <mxCell id="LeWQNQjI-AW6BPyhMRMa-10" value="-Map&lt;Patient, List&lt;Booking&gt;&gt;" style="text;strokeColor=none;fillColor=none;align=left;verticalAlign=middle;spacingLeft=4;spacingRight=4;overflow=hidden;points=[[0,0.5],[1,0.5]];portConstraint=eastwest;rotatable=0;fontSize=12;" parent="LeWQNQjI-AW6BPyhMRMa-1" vertex="1">
          <mxGeometry y="60" width="170" height="30" as="geometry" />
        </mxCell>
        <mxCell id="LeWQNQjI-AW6BPyhMRMa-3" value="-" style="text;strokeColor=none;fillColor=none;align=left;verticalAlign=middle;spacingLeft=4;spacingRight=4;overflow=hidden;points=[[0,0.5],[1,0.5]];portConstraint=eastwest;rotatable=0;fontSize=12;" parent="LeWQNQjI-AW6BPyhMRMa-1" vertex="1">
          <mxGeometry y="90" width="170" height="30" as="geometry" />
        </mxCell>
        <mxCell id="LeWQNQjI-AW6BPyhMRMa-15" value="1" style="text;html=1;align=center;verticalAlign=middle;resizable=0;points=[];autosize=1;strokeColor=none;fillColor=none;" parent="1" vertex="1">
          <mxGeometry x="40" y="280" width="20" height="20" as="geometry" />
        </mxCell>
        <mxCell id="LeWQNQjI-AW6BPyhMRMa-17" value="1..*" style="text;html=1;align=center;verticalAlign=middle;resizable=0;points=[];autosize=1;strokeColor=none;fillColor=none;" parent="1" vertex="1">
          <mxGeometry x="580" y="150" width="30" height="20" as="geometry" />
        </mxCell>
        <mxCell id="LeWQNQjI-AW6BPyhMRMa-18" value="0..*" style="text;html=1;align=center;verticalAlign=middle;resizable=0;points=[];autosize=1;strokeColor=none;fillColor=none;" parent="1" vertex="1">
          <mxGeometry x="450" y="150" width="30" height="20" as="geometry" />
        </mxCell>
        <mxCell id="LeWQNQjI-AW6BPyhMRMa-40" style="edgeStyle=orthogonalEdgeStyle;rounded=0;orthogonalLoop=1;jettySize=auto;html=1;" parent="1" source="LeWQNQjI-AW6BPyhMRMa-27" target="B5mQjCqMpTKeqFQhilP3-119" edge="1">
          <mxGeometry relative="1" as="geometry" />
        </mxCell>
        <mxCell id="u0HvfiVG0HD8jwC7soJ5-4" value="1" style="edgeLabel;html=1;align=center;verticalAlign=middle;resizable=0;points=[];" parent="LeWQNQjI-AW6BPyhMRMa-40" vertex="1" connectable="0">
          <mxGeometry x="-0.2357" y="-2" relative="1" as="geometry">
            <mxPoint x="8" y="21" as="offset" />
          </mxGeometry>
        </mxCell>
        <mxCell id="u0HvfiVG0HD8jwC7soJ5-6" value="0..*" style="edgeLabel;html=1;align=center;verticalAlign=middle;resizable=0;points=[];" parent="LeWQNQjI-AW6BPyhMRMa-40" vertex="1" connectable="0">
          <mxGeometry x="0.3643" y="2" relative="1" as="geometry">
            <mxPoint x="-13" y="-10" as="offset" />
          </mxGeometry>
        </mxCell>
        <mxCell id="LeWQNQjI-AW6BPyhMRMa-27" value="&lt;&lt;enumeration&gt;&gt;&#xa;Speciality" style="swimlane;fontStyle=0;childLayout=stackLayout;horizontal=1;startSize=30;horizontalStack=0;resizeParent=1;resizeParentMax=0;resizeLast=0;collapsible=1;marginBottom=0;fontSize=12;strokeWidth=1;" parent="1" vertex="1">
          <mxGeometry x="280" y="930.0000000000001" width="190" height="120" as="geometry" />
        </mxCell>
        <mxCell id="LeWQNQjI-AW6BPyhMRMa-28" value="SURGEON" style="text;strokeColor=none;fillColor=none;align=left;verticalAlign=middle;spacingLeft=4;spacingRight=4;overflow=hidden;points=[[0,0.5],[1,0.5]];portConstraint=eastwest;rotatable=0;fontSize=12;" parent="LeWQNQjI-AW6BPyhMRMa-27" vertex="1">
          <mxGeometry y="30" width="190" height="30" as="geometry" />
        </mxCell>
        <mxCell id="LeWQNQjI-AW6BPyhMRMa-29" value="GENERAL PRACTITIONER" style="text;strokeColor=none;fillColor=none;align=left;verticalAlign=middle;spacingLeft=4;spacingRight=4;overflow=hidden;points=[[0,0.5],[1,0.5]];portConstraint=eastwest;rotatable=0;fontSize=12;" parent="LeWQNQjI-AW6BPyhMRMa-27" vertex="1">
          <mxGeometry y="60" width="190" height="30" as="geometry" />
        </mxCell>
        <mxCell id="LeWQNQjI-AW6BPyhMRMa-30" value="CARDIOLOGIST" style="text;strokeColor=none;fillColor=none;align=left;verticalAlign=middle;spacingLeft=4;spacingRight=4;overflow=hidden;points=[[0,0.5],[1,0.5]];portConstraint=eastwest;rotatable=0;fontSize=12;" parent="LeWQNQjI-AW6BPyhMRMa-27" vertex="1">
          <mxGeometry y="90" width="190" height="30" as="geometry" />
        </mxCell>
        <mxCell id="LeWQNQjI-AW6BPyhMRMa-44" style="edgeStyle=orthogonalEdgeStyle;rounded=0;orthogonalLoop=1;jettySize=auto;html=1;" parent="1" source="DDVY3Nt3nS0iTd7MeDLq-3" target="B5mQjCqMpTKeqFQhilP3-80" edge="1">
          <mxGeometry relative="1" as="geometry" />
        </mxCell>
        <mxCell id="nRXnl9KmNHgFB3vZUYHG-24" value="0..*" style="edgeLabel;html=1;align=center;verticalAlign=middle;resizable=0;points=[];" parent="LeWQNQjI-AW6BPyhMRMa-44" vertex="1" connectable="0">
          <mxGeometry x="-0.6989" y="-2" relative="1" as="geometry">
            <mxPoint x="-5" y="-13" as="offset" />
          </mxGeometry>
        </mxCell>
        <mxCell id="nRXnl9KmNHgFB3vZUYHG-25" value="1" style="edgeLabel;html=1;align=center;verticalAlign=middle;resizable=0;points=[];" parent="LeWQNQjI-AW6BPyhMRMa-44" vertex="1" connectable="0">
          <mxGeometry x="0.7015" y="1" relative="1" as="geometry">
            <mxPoint x="8" y="-10" as="offset" />
          </mxGeometry>
        </mxCell>
        <mxCell id="LeWQNQjI-AW6BPyhMRMa-46" value="0..*" style="text;html=1;align=center;verticalAlign=middle;resizable=0;points=[];autosize=1;strokeColor=none;fillColor=none;" parent="1" vertex="1">
          <mxGeometry x="335" y="110" width="30" height="20" as="geometry" />
        </mxCell>
        <mxCell id="LeWQNQjI-AW6BPyhMRMa-50" value="1" style="text;html=1;align=center;verticalAlign=middle;resizable=0;points=[];autosize=1;strokeColor=none;fillColor=none;" parent="1" vertex="1">
          <mxGeometry x="25" y="380" width="20" height="20" as="geometry" />
        </mxCell>
        <mxCell id="LeWQNQjI-AW6BPyhMRMa-51" value="0..*" style="text;html=1;align=center;verticalAlign=middle;resizable=0;points=[];autosize=1;strokeColor=none;fillColor=none;" parent="1" vertex="1">
          <mxGeometry x="-270" y="410" width="30" height="20" as="geometry" />
        </mxCell>
        <mxCell id="LeWQNQjI-AW6BPyhMRMa-52" value="1..*" style="text;html=1;align=center;verticalAlign=middle;resizable=0;points=[];autosize=1;strokeColor=none;fillColor=none;" parent="1" vertex="1">
          <mxGeometry x="110" y="580" width="30" height="20" as="geometry" />
        </mxCell>
        <mxCell id="LeWQNQjI-AW6BPyhMRMa-53" value="1" style="text;html=1;align=center;verticalAlign=middle;resizable=0;points=[];autosize=1;strokeColor=none;fillColor=none;" parent="1" vertex="1">
          <mxGeometry x="115" y="489.51" width="20" height="20" as="geometry" />
        </mxCell>
        <mxCell id="LeWQNQjI-AW6BPyhMRMa-54" value="0..*" style="text;html=1;align=center;verticalAlign=middle;resizable=0;points=[];autosize=1;strokeColor=none;fillColor=none;" parent="1" vertex="1">
          <mxGeometry x="15" y="410" width="30" height="20" as="geometry" />
        </mxCell>
        <mxCell id="LeWQNQjI-AW6BPyhMRMa-55" value="0..*" style="text;html=1;align=center;verticalAlign=middle;resizable=0;points=[];autosize=1;strokeColor=none;fillColor=none;" parent="1" vertex="1">
          <mxGeometry x="-110" y="565" width="30" height="20" as="geometry" />
        </mxCell>
        <mxCell id="nRXnl9KmNHgFB3vZUYHG-5" style="edgeStyle=orthogonalEdgeStyle;rounded=0;orthogonalLoop=1;jettySize=auto;html=1;endArrow=diamond;endFill=1;" parent="1" source="nRXnl9KmNHgFB3vZUYHG-1" target="B5mQjCqMpTKeqFQhilP3-59" edge="1">
          <mxGeometry relative="1" as="geometry">
            <Array as="points">
              <mxPoint x="-380" y="-230" />
            </Array>
            <mxPoint x="-380" y="-160" as="targetPoint" />
          </mxGeometry>
        </mxCell>
        <mxCell id="nRXnl9KmNHgFB3vZUYHG-8" value="0..*" style="edgeLabel;html=1;align=center;verticalAlign=middle;resizable=0;points=[];" parent="nRXnl9KmNHgFB3vZUYHG-5" vertex="1" connectable="0">
          <mxGeometry x="-0.6577" y="-2" relative="1" as="geometry">
            <mxPoint x="-21" y="111" as="offset" />
          </mxGeometry>
        </mxCell>
        <mxCell id="nRXnl9KmNHgFB3vZUYHG-1" value="Item" style="swimlane;fontStyle=2;childLayout=stackLayout;horizontal=1;startSize=30;horizontalStack=0;resizeParent=1;resizeParentMax=0;resizeLast=0;collapsible=1;marginBottom=0;fontSize=12;strokeWidth=1;" parent="1" vertex="1">
          <mxGeometry x="-460" y="0.2899999999999636" width="160" height="120" as="geometry" />
        </mxCell>
        <mxCell id="nRXnl9KmNHgFB3vZUYHG-2" value="String name" style="text;strokeColor=none;fillColor=none;align=left;verticalAlign=middle;spacingLeft=4;spacingRight=4;overflow=hidden;points=[[0,0.5],[1,0.5]];portConstraint=eastwest;rotatable=0;fontSize=12;" parent="nRXnl9KmNHgFB3vZUYHG-1" vertex="1">
          <mxGeometry y="30" width="160" height="30" as="geometry" />
        </mxCell>
        <mxCell id="nRXnl9KmNHgFB3vZUYHG-3" value="String description" style="text;strokeColor=none;fillColor=none;align=left;verticalAlign=middle;spacingLeft=4;spacingRight=4;overflow=hidden;points=[[0,0.5],[1,0.5]];portConstraint=eastwest;rotatable=0;fontSize=12;" parent="nRXnl9KmNHgFB3vZUYHG-1" vertex="1">
          <mxGeometry y="60" width="160" height="30" as="geometry" />
        </mxCell>
        <mxCell id="q-ojMvLr_y8LTL2l0AsS-19" value="float price" style="text;strokeColor=none;fillColor=none;align=left;verticalAlign=middle;spacingLeft=4;spacingRight=4;overflow=hidden;points=[[0,0.5],[1,0.5]];portConstraint=eastwest;rotatable=0;fontSize=12;" parent="nRXnl9KmNHgFB3vZUYHG-1" vertex="1">
          <mxGeometry y="90" width="160" height="30" as="geometry" />
        </mxCell>
        <mxCell id="nRXnl9KmNHgFB3vZUYHG-21" value="1..*" style="text;html=1;align=center;verticalAlign=middle;resizable=0;points=[];autosize=1;strokeColor=none;fillColor=none;" parent="1" vertex="1">
          <mxGeometry x="765" y="673.4300000000001" width="30" height="20" as="geometry" />
        </mxCell>
        <mxCell id="nRXnl9KmNHgFB3vZUYHG-51" value="0..*" style="text;html=1;align=center;verticalAlign=middle;resizable=0;points=[];autosize=1;strokeColor=none;fillColor=none;" parent="1" vertex="1">
          <mxGeometry x="305" y="673.4300000000001" width="40" height="20" as="geometry" />
        </mxCell>
        <mxCell id="WqXNfciUuAKUTGCagJN3-14" style="edgeStyle=orthogonalEdgeStyle;rounded=0;orthogonalLoop=1;jettySize=auto;html=1;" parent="1" source="q-ojMvLr_y8LTL2l0AsS-24" target="B5mQjCqMpTKeqFQhilP3-168" edge="1">
          <mxGeometry relative="1" as="geometry">
            <Array as="points">
              <mxPoint x="-640" y="1060" />
              <mxPoint x="580" y="1060" />
            </Array>
          </mxGeometry>
        </mxCell>
        <mxCell id="ef3XcoiX8iwjNsqz5C6_-15" style="edgeStyle=orthogonalEdgeStyle;rounded=0;orthogonalLoop=1;jettySize=auto;html=1;endArrow=classic;endFill=1;" edge="1" parent="1" source="q-ojMvLr_y8LTL2l0AsS-24" target="nRXnl9KmNHgFB3vZUYHG-1">
          <mxGeometry relative="1" as="geometry">
            <Array as="points">
              <mxPoint x="-620" y="20" />
            </Array>
          </mxGeometry>
        </mxCell>
        <mxCell id="ef3XcoiX8iwjNsqz5C6_-17" value="0..*" style="edgeLabel;html=1;align=center;verticalAlign=middle;resizable=0;points=[];" vertex="1" connectable="0" parent="ef3XcoiX8iwjNsqz5C6_-15">
          <mxGeometry x="0.6737" y="-2" relative="1" as="geometry">
            <mxPoint x="11" y="-12" as="offset" />
          </mxGeometry>
        </mxCell>
        <mxCell id="ef3XcoiX8iwjNsqz5C6_-18" value="0..*" style="edgeLabel;html=1;align=center;verticalAlign=middle;resizable=0;points=[];" vertex="1" connectable="0" parent="ef3XcoiX8iwjNsqz5C6_-15">
          <mxGeometry x="-0.3789" y="-1" relative="1" as="geometry">
            <mxPoint x="-19" y="-21" as="offset" />
          </mxGeometry>
        </mxCell>
        <mxCell id="q-ojMvLr_y8LTL2l0AsS-24" value="Order" style="swimlane;fontStyle=2;childLayout=stackLayout;horizontal=1;startSize=30;horizontalStack=0;resizeParent=1;resizeParentMax=0;resizeLast=0;collapsible=1;marginBottom=0;fontSize=12;strokeWidth=1;" parent="1" vertex="1">
          <mxGeometry x="-700" y="-240" width="210" height="230" as="geometry" />
        </mxCell>
        <mxCell id="q-ojMvLr_y8LTL2l0AsS-26" value="Map&lt;Item, int&gt; shoppingcart" style="text;strokeColor=none;fillColor=none;align=left;verticalAlign=middle;spacingLeft=4;spacingRight=4;overflow=hidden;points=[[0,0.5],[1,0.5]];portConstraint=eastwest;rotatable=0;fontSize=12;" parent="q-ojMvLr_y8LTL2l0AsS-24" vertex="1">
          <mxGeometry y="30" width="210" height="40" as="geometry" />
        </mxCell>
        <mxCell id="q-ojMvLr_y8LTL2l0AsS-30" value="long totalSum;" style="text;strokeColor=none;fillColor=none;align=left;verticalAlign=middle;spacingLeft=4;spacingRight=4;overflow=hidden;points=[[0,0.5],[1,0.5]];portConstraint=eastwest;rotatable=0;fontSize=12;" parent="q-ojMvLr_y8LTL2l0AsS-24" vertex="1">
          <mxGeometry y="70" width="210" height="40" as="geometry" />
        </mxCell>
        <mxCell id="q-ojMvLr_y8LTL2l0AsS-32" value="LocalDateTime date;" style="text;strokeColor=none;fillColor=none;align=left;verticalAlign=middle;spacingLeft=4;spacingRight=4;overflow=hidden;points=[[0,0.5],[1,0.5]];portConstraint=eastwest;rotatable=0;fontSize=12;" parent="q-ojMvLr_y8LTL2l0AsS-24" vertex="1">
          <mxGeometry y="110" width="210" height="40" as="geometry" />
        </mxCell>
        <mxCell id="q-ojMvLr_y8LTL2l0AsS-37" value="String notes" style="text;strokeColor=none;fillColor=none;align=left;verticalAlign=middle;spacingLeft=4;spacingRight=4;overflow=hidden;points=[[0,0.5],[1,0.5]];portConstraint=eastwest;rotatable=0;fontSize=12;" parent="q-ojMvLr_y8LTL2l0AsS-24" vertex="1">
          <mxGeometry y="150" width="210" height="40" as="geometry" />
        </mxCell>
        <mxCell id="q-ojMvLr_y8LTL2l0AsS-38" value="Employee orderer" style="text;strokeColor=none;fillColor=none;align=left;verticalAlign=middle;spacingLeft=4;spacingRight=4;overflow=hidden;points=[[0,0.5],[1,0.5]];portConstraint=eastwest;rotatable=0;fontSize=12;" parent="q-ojMvLr_y8LTL2l0AsS-24" vertex="1">
          <mxGeometry y="190" width="210" height="40" as="geometry" />
        </mxCell>
        <mxCell id="WqXNfciUuAKUTGCagJN3-1" value="1" style="text;html=1;align=center;verticalAlign=middle;resizable=0;points=[];autosize=1;strokeColor=none;fillColor=none;" parent="1" vertex="1">
          <mxGeometry x="645" y="433.43" width="20" height="20" as="geometry" />
        </mxCell>
        <mxCell id="WqXNfciUuAKUTGCagJN3-2" value="0..*" style="text;html=1;align=center;verticalAlign=middle;resizable=0;points=[];autosize=1;strokeColor=none;fillColor=none;" parent="1" vertex="1">
          <mxGeometry x="-580" y="-260" width="30" height="20" as="geometry" />
        </mxCell>
        <mxCell id="WqXNfciUuAKUTGCagJN3-23" style="edgeStyle=orthogonalEdgeStyle;rounded=0;orthogonalLoop=1;jettySize=auto;html=1;entryX=1.006;entryY=0.133;entryDx=0;entryDy=0;entryPerimeter=0;" parent="1" source="WqXNfciUuAKUTGCagJN3-15" target="WqXNfciUuAKUTGCagJN3-19" edge="1">
          <mxGeometry relative="1" as="geometry">
            <Array as="points">
              <mxPoint x="945" y="617.4300000000001" />
            </Array>
          </mxGeometry>
        </mxCell>
        <mxCell id="WqXNfciUuAKUTGCagJN3-15" value="&lt;&lt;enumeration&gt;&gt;&#xa;Accessibility" style="swimlane;fontStyle=0;childLayout=stackLayout;horizontal=1;startSize=30;horizontalStack=0;resizeParent=1;resizeParentMax=0;resizeLast=0;collapsible=1;marginBottom=0;fontSize=12;strokeWidth=1;" parent="1" vertex="1">
          <mxGeometry x="850" y="694.4300000000001" width="190" height="150" as="geometry" />
        </mxCell>
        <mxCell id="WqXNfciUuAKUTGCagJN3-16" value="ALL" style="text;strokeColor=none;fillColor=none;align=left;verticalAlign=middle;spacingLeft=4;spacingRight=4;overflow=hidden;points=[[0,0.5],[1,0.5]];portConstraint=eastwest;rotatable=0;fontSize=12;" parent="WqXNfciUuAKUTGCagJN3-15" vertex="1">
          <mxGeometry y="30" width="190" height="30" as="geometry" />
        </mxCell>
        <mxCell id="WqXNfciUuAKUTGCagJN3-17" value="DOCTOR" style="text;strokeColor=none;fillColor=none;align=left;verticalAlign=middle;spacingLeft=4;spacingRight=4;overflow=hidden;points=[[0,0.5],[1,0.5]];portConstraint=eastwest;rotatable=0;fontSize=12;" parent="WqXNfciUuAKUTGCagJN3-15" vertex="1">
          <mxGeometry y="60" width="190" height="30" as="geometry" />
        </mxCell>
        <mxCell id="WqXNfciUuAKUTGCagJN3-18" value="RECEPTIONIST" style="text;strokeColor=none;fillColor=none;align=left;verticalAlign=middle;spacingLeft=4;spacingRight=4;overflow=hidden;points=[[0,0.5],[1,0.5]];portConstraint=eastwest;rotatable=0;fontSize=12;" parent="WqXNfciUuAKUTGCagJN3-15" vertex="1">
          <mxGeometry y="90" width="190" height="30" as="geometry" />
        </mxCell>
        <mxCell id="WqXNfciUuAKUTGCagJN3-21" value="NONE" style="text;strokeColor=none;fillColor=none;align=left;verticalAlign=middle;spacingLeft=4;spacingRight=4;overflow=hidden;points=[[0,0.5],[1,0.5]];portConstraint=eastwest;rotatable=0;fontSize=12;" parent="WqXNfciUuAKUTGCagJN3-15" vertex="1">
          <mxGeometry y="120" width="190" height="30" as="geometry" />
        </mxCell>
        <mxCell id="ef3XcoiX8iwjNsqz5C6_-8" style="edgeStyle=orthogonalEdgeStyle;rounded=0;orthogonalLoop=1;jettySize=auto;html=1;" edge="1" parent="1" source="B5mQjCqMpTKeqFQhilP3-148" target="B5mQjCqMpTKeqFQhilP3-69">
          <mxGeometry relative="1" as="geometry">
            <Array as="points">
              <mxPoint x="210" y="205" />
            </Array>
          </mxGeometry>
        </mxCell>
        <mxCell id="ef3XcoiX8iwjNsqz5C6_-9" value="1" style="edgeLabel;html=1;align=center;verticalAlign=middle;resizable=0;points=[];" vertex="1" connectable="0" parent="ef3XcoiX8iwjNsqz5C6_-8">
          <mxGeometry x="0.7412" y="2" relative="1" as="geometry">
            <mxPoint x="-8" y="-12" as="offset" />
          </mxGeometry>
        </mxCell>
        <mxCell id="ef3XcoiX8iwjNsqz5C6_-10" value="0..*" style="edgeLabel;html=1;align=center;verticalAlign=middle;resizable=0;points=[];" vertex="1" connectable="0" parent="ef3XcoiX8iwjNsqz5C6_-8">
          <mxGeometry x="-0.8" y="1" relative="1" as="geometry">
            <mxPoint x="2" y="14" as="offset" />
          </mxGeometry>
        </mxCell>
      </root>
    </mxGraphModel>
  </diagram>
</mxfile>
